<?xml version="1.0" encoding="utf-8"?>
<!-- Generator: Adobe Illustrator 22.0.1, SVG Export Plug-In . SVG Version: 6.00 Build 0)  -->
<svg version="1.1" id="Layer_1" xmlns="http://www.w3.org/2000/svg" xmlns:xlink="http://www.w3.org/1999/xlink" x="0px" y="0px"
	 viewBox="0 0 1919.2 207.2" style="enable-background:new 0 0 1919.2 207.2;" xml:space="preserve">
<style type="text/css">
	.st1{fill:#f6f6f6;}
</style>
<g>
	<path class="st1" d="M0.1,166.1c5.3-1.9,10.9-1.3,16.3-1.8c50.1-4,100.3-7.6,150.4-11.4c31.5-2.3,63.1-4.6,94.6-7
		c31.7-2.4,63.4-5.1,95.1-7.5c35-2.6,70.1-5,105.1-7.6c27.6-2.1,55.1-4.4,82.6-6.6c23.1-1.8,46.1-3.4,69.2-5.1
		c30.6-2.3,61.1-4.6,91.6-6.9c23.7-1.8,47.5-3.5,71.2-5.3c23.4-1.8,46.8-3.8,70.2-5.6c18.7-1.4,37.5-2.7,56.3-4.1
		c26.7-2,53.5-4.1,80.2-6.1c23.2-1.7,46.5-3.4,69.7-5.2c23.4-1.8,46.8-3.8,70.2-5.6c18.4-1.4,36.8-2.7,55.3-4.1
		c23.2-1.7,46.5-3.5,69.7-5.2c23.1-1.7,46.2-3.4,69.2-5.1c23.4-1.8,46.8-3.8,70.2-5.6c18.9-1.5,37.8-2.7,56.8-4.2
		c26.7-2,53.5-4.1,80.2-6.1c23.4-1.8,46.8-3.4,70.2-5.2c23.4-1.8,46.8-3.8,70.2-5.6c23.1-1.8,46.1-3.4,69.2-5.1
		c26.6-2,53.1-4,79.7-6c23.6-1.8,47.2-3.5,70.7-5.2c11.6-0.9,23.2-1.9,34.8-2.8c0,49,0,98,0,147c-1.6,1.5-3.5,1.7-5.6,1.8
		c-2.2,0.1-4.3,0.1-6.5,0.1c-631.6,0-1263.2,0-1894.9,0c-4.1,0-8.4,1.1-12.1-1.8C0.1,166.8,0.1,166.4,0.1,166.1z"/>
</g>
</svg>
